<svg width="70" height="32" viewBox="0 0 70 32" fill="none" xmlns="http://www.w3.org/2000/svg">
<mask id="path-1-outside-1_17_1090" maskUnits="userSpaceOnUse" x="0" y="0" width="70" height="32" fill="black">
<rect fill="white" width="70" height="32"/>
<path d="M42.12 1.92L34.8 30H26.52L22.04 11.52L17.4 30H9.12L2 1.92H9.32L13.36 22.36L18.36 1.92H25.88L30.68 22.36L34.76 1.92H42.12ZM68.5903 18.48C68.5903 19.12 68.5503 19.7867 68.4703 20.48H52.9903C53.097 21.8667 53.537 22.9333 54.3103 23.68C55.1103 24.4 56.0836 24.76 57.2303 24.76C58.937 24.76 60.1236 24.04 60.7903 22.6H68.0703C67.697 24.0667 67.017 25.3867 66.0303 26.56C65.0703 27.7333 63.857 28.6533 62.3903 29.32C60.9236 29.9867 59.2836 30.32 57.4703 30.32C55.2836 30.32 53.337 29.8533 51.6303 28.92C49.9236 27.9867 48.5903 26.6533 47.6303 24.92C46.6703 23.1867 46.1903 21.16 46.1903 18.84C46.1903 16.52 46.657 14.4933 47.5903 12.76C48.5503 11.0267 49.8836 9.69333 51.5903 8.76C53.297 7.82667 55.257 7.36 57.4703 7.36C59.6303 7.36 61.5503 7.81333 63.2303 8.72C64.9103 9.62667 66.217 10.92 67.1503 12.6C68.1103 14.28 68.5903 16.24 68.5903 18.48ZM61.5903 16.68C61.5903 15.5067 61.1903 14.5733 60.3903 13.88C59.5903 13.1867 58.5903 12.84 57.3903 12.84C56.2436 12.84 55.2703 13.1733 54.4703 13.84C53.697 14.5067 53.217 15.4533 53.0303 16.68H61.5903Z"/>
</mask>
<path d="M42.12 1.92L34.8 30H26.52L22.04 11.52L17.4 30H9.12L2 1.92H9.32L13.36 22.36L18.36 1.92H25.88L30.68 22.36L34.76 1.92H42.12ZM68.5903 18.48C68.5903 19.12 68.5503 19.7867 68.4703 20.48H52.9903C53.097 21.8667 53.537 22.9333 54.3103 23.68C55.1103 24.4 56.0836 24.76 57.2303 24.76C58.937 24.76 60.1236 24.04 60.7903 22.6H68.0703C67.697 24.0667 67.017 25.3867 66.0303 26.56C65.0703 27.7333 63.857 28.6533 62.3903 29.32C60.9236 29.9867 59.2836 30.32 57.4703 30.32C55.2836 30.32 53.337 29.8533 51.6303 28.92C49.9236 27.9867 48.5903 26.6533 47.6303 24.92C46.6703 23.1867 46.1903 21.16 46.1903 18.84C46.1903 16.52 46.657 14.4933 47.5903 12.76C48.5503 11.0267 49.8836 9.69333 51.5903 8.76C53.297 7.82667 55.257 7.36 57.4703 7.36C59.6303 7.36 61.5503 7.81333 63.2303 8.72C64.9103 9.62667 66.217 10.92 67.1503 12.6C68.1103 14.28 68.5903 16.24 68.5903 18.48ZM61.5903 16.68C61.5903 15.5067 61.1903 14.5733 60.3903 13.88C59.5903 13.1867 58.5903 12.84 57.3903 12.84C56.2436 12.84 55.2703 13.1733 54.4703 13.84C53.697 14.5067 53.217 15.4533 53.0303 16.68H61.5903Z" fill="#F8FAFF"/>
<path d="M42.12 1.92L43.0877 2.17225L43.4141 0.919999H42.12V1.92ZM34.8 30V31H35.5727L35.7677 30.2523L34.8 30ZM26.52 30L25.5482 30.2356L25.7335 31H26.52V30ZM22.04 11.52L23.0119 11.2844L21.0701 11.2765L22.04 11.52ZM17.4 30V31H18.18L18.3699 30.2435L17.4 30ZM9.12 30L8.15068 30.2458L8.34192 31H9.12V30ZM2 1.92V0.919999H0.714793L1.03068 2.16578L2 1.92ZM9.32 1.92L10.301 1.7261L10.1417 0.919999H9.32V1.92ZM13.36 22.36L12.379 22.5539L14.3314 22.5976L13.36 22.36ZM18.36 1.92V0.919999H17.5751L17.3886 1.68239L18.36 1.92ZM25.88 1.92L26.8535 1.69138L26.6724 0.919999H25.88V1.92ZM30.68 22.36L29.7065 22.5886L31.6607 22.5557L30.68 22.36ZM34.76 1.92V0.919999H33.9399L33.7793 1.72425L34.76 1.92ZM42.12 1.92L41.1523 1.66775L33.8323 29.7477L34.8 30L35.7677 30.2523L43.0877 2.17225L42.12 1.92ZM34.8 30V29H26.52V30V31H34.8V30ZM26.52 30L27.4919 29.7644L23.0119 11.2844L22.04 11.52L21.0682 11.7556L25.5482 30.2356L26.52 30ZM22.04 11.52L21.0701 11.2765L16.4301 29.7565L17.4 30L18.3699 30.2435L23.0099 11.7635L22.04 11.52ZM17.4 30V29H9.12V30V31H17.4V30ZM9.12 30L10.0893 29.7542L2.96932 1.67422L2 1.92L1.03068 2.16578L8.15068 30.2458L9.12 30ZM2 1.92V2.92H9.32V1.92V0.919999H2V1.92ZM9.32 1.92L8.33898 2.1139L12.379 22.5539L13.36 22.36L14.341 22.1661L10.301 1.7261L9.32 1.92ZM13.36 22.36L14.3314 22.5976L19.3314 2.15761L18.36 1.92L17.3886 1.68239L12.3886 22.1224L13.36 22.36ZM18.36 1.92V2.92H25.88V1.92V0.919999H18.36V1.92ZM25.88 1.92L24.9065 2.14861L29.7065 22.5886L30.68 22.36L31.6535 22.1314L26.8535 1.69138L25.88 1.92ZM30.68 22.36L31.6607 22.5557L35.7407 2.11575L34.76 1.92L33.7793 1.72425L29.6993 22.1643L30.68 22.36ZM34.76 1.92V2.92H42.12V1.92V0.919999H34.76V1.92ZM68.4703 20.48V21.48H69.3616L69.4637 20.5946L68.4703 20.48ZM52.9903 20.48V19.48H51.9104L51.9933 20.5567L52.9903 20.48ZM54.3103 23.68L53.6157 24.3994L53.6283 24.4116L53.6413 24.4233L54.3103 23.68ZM60.7903 22.6V21.6H60.1513L59.8828 22.1799L60.7903 22.6ZM68.0703 22.6L69.0394 22.8467L69.3567 21.6H68.0703V22.6ZM66.0303 26.56L65.2649 25.9163L65.2564 25.9268L66.0303 26.56ZM62.3903 29.32L62.8041 30.2304L62.3903 29.32ZM51.6303 28.92L51.1505 29.7974L51.1505 29.7974L51.6303 28.92ZM47.6303 24.92L48.5051 24.4355L48.5051 24.4355L47.6303 24.92ZM47.5903 12.76L46.7155 12.2755L46.7098 12.2859L47.5903 12.76ZM51.5903 8.76L52.0701 9.63737L52.0701 9.63737L51.5903 8.76ZM63.2303 8.72L62.7554 9.60002L62.7554 9.60002L63.2303 8.72ZM67.1503 12.6L66.2761 13.0857L66.2821 13.0961L67.1503 12.6ZM61.5903 16.68V17.68H62.5903V16.68H61.5903ZM60.3903 13.88L61.0452 13.1243L61.0452 13.1243L60.3903 13.88ZM54.4703 13.84L53.8301 13.0718L53.8237 13.0771L53.8174 13.0826L54.4703 13.84ZM53.0303 16.68L52.0417 16.5296L51.8666 17.68H53.0303V16.68ZM68.5903 18.48H67.5903C67.5903 19.0784 67.5529 19.7067 67.4769 20.3654L68.4703 20.48L69.4637 20.5946C69.5477 19.8666 69.5903 19.1616 69.5903 18.48H68.5903ZM68.4703 20.48V19.48H52.9903V20.48V21.48H68.4703V20.48ZM52.9903 20.48L51.9933 20.5567C52.113 22.1139 52.6196 23.4377 53.6157 24.3994L54.3103 23.68L55.0049 22.9606C54.4543 22.429 54.0809 21.6195 53.9874 20.4033L52.9903 20.48ZM54.3103 23.68L53.6413 24.4233C54.6377 25.32 55.8542 25.76 57.2303 25.76V24.76V23.76C56.3131 23.76 55.583 23.48 54.9793 22.9367L54.3103 23.68ZM57.2303 24.76V25.76C58.2247 25.76 59.137 25.5494 59.919 25.0749C60.7057 24.5976 61.2933 23.8938 61.6978 23.0201L60.7903 22.6L59.8828 22.1799C59.6207 22.7462 59.2815 23.1224 58.8816 23.3651C58.477 23.6106 57.9426 23.76 57.2303 23.76V24.76ZM60.7903 22.6V23.6H68.0703V22.6V21.6H60.7903V22.6ZM68.0703 22.6L67.1012 22.3533C66.7655 23.6721 66.156 24.8568 65.265 25.9164L66.0303 26.56L66.7957 27.2036C67.878 25.9165 68.6284 24.4613 69.0394 22.8467L68.0703 22.6ZM66.0303 26.56L65.2564 25.9268C64.3996 26.9739 63.3124 27.8024 61.9765 28.4096L62.3903 29.32L62.8041 30.2304C64.4015 29.5043 65.741 28.4928 66.8043 27.1932L66.0303 26.56ZM62.3903 29.32L61.9765 28.4096C60.6552 29.0102 59.1589 29.32 57.4703 29.32V30.32V31.32C59.4084 31.32 61.1921 30.9631 62.8041 30.2304L62.3903 29.32ZM57.4703 30.32V29.32C55.4302 29.32 53.6522 28.8859 52.1101 28.0426L51.6303 28.92L51.1505 29.7974C53.0218 30.8207 55.1371 31.32 57.4703 31.32V30.32ZM51.6303 28.92L52.1101 28.0426C50.5729 27.202 49.3751 26.0064 48.5051 24.4355L47.6303 24.92L46.7555 25.4045C47.8055 27.3003 49.2744 28.7714 51.1505 29.7974L51.6303 28.92ZM47.6303 24.92L48.5051 24.4355C47.6403 22.874 47.1903 21.0196 47.1903 18.84H46.1903H45.1903C45.1903 21.3004 45.7004 23.4994 46.7555 25.4045L47.6303 24.92ZM46.1903 18.84H47.1903C47.1903 16.6559 47.6288 14.7977 48.4708 13.2341L47.5903 12.76L46.7098 12.2859C45.6851 14.1889 45.1903 16.3841 45.1903 18.84H46.1903ZM47.5903 12.76L48.4651 13.2445C49.3351 11.6736 50.5329 10.478 52.0701 9.63737L51.5903 8.76L51.1105 7.88263C49.2344 8.90863 47.7655 10.3797 46.7155 12.2755L47.5903 12.76ZM51.5903 8.76L52.0701 9.63737C53.6104 8.79502 55.4013 8.36 57.4703 8.36V7.36V6.36C55.1127 6.36 52.9835 6.85831 51.1105 7.88263L51.5903 8.76ZM57.4703 7.36V8.36C59.4866 8.36 61.2396 8.78196 62.7554 9.60002L63.2303 8.72L63.7052 7.83998C61.8611 6.8447 59.774 6.36 57.4703 6.36V7.36ZM63.2303 8.72L62.7554 9.60002C64.2662 10.4154 65.4349 11.5713 66.2762 13.0856L67.1503 12.6L68.0245 12.1144C66.9991 10.2687 65.5544 8.83795 63.7052 7.83998L63.2303 8.72ZM67.1503 12.6L66.2821 13.0961C67.1429 14.6027 67.5903 16.3863 67.5903 18.48H68.5903H69.5903C69.5903 16.0937 69.0777 13.9573 68.0186 12.1039L67.1503 12.6ZM61.5903 16.68H62.5903C62.5903 15.2519 62.0897 14.0295 61.0452 13.1243L60.3903 13.88L59.7354 14.6357C60.2909 15.1171 60.5903 15.7614 60.5903 16.68H61.5903ZM60.3903 13.88L61.0452 13.1243C60.0391 12.2523 58.7966 11.84 57.3903 11.84V12.84V13.84C58.384 13.84 59.1415 14.121 59.7354 14.6357L60.3903 13.88ZM57.3903 12.84V11.84C56.035 11.84 54.8284 12.2399 53.8301 13.0718L54.4703 13.84L55.1105 14.6082C55.7123 14.1068 56.4523 13.84 57.3903 13.84V12.84ZM54.4703 13.84L53.8174 13.0826C52.8265 13.9368 52.2562 15.1199 52.0417 16.5296L53.0303 16.68L54.0189 16.8304C54.1778 15.7868 54.5674 15.0766 55.1233 14.5974L54.4703 13.84ZM53.0303 16.68V17.68H61.5903V16.68V15.68H53.0303V16.68Z" fill="#000066" mask="url(#path-1-outside-1_17_1090)"/>
</svg>
